<svg xmlns="http://www.w3.org/2000/svg" width="294" height="229" viewBox="0 0 294 229" fill="none"><path d="M166.488 63C161.688 39.8 113.821 11.3333 90.4877 0C88.9877 19.6667 86.8877 64.3 90.4877 85.5C94.0877 106.7 143.988 135.333 168.488 147C169.821 128.667 171.288 86.2 166.488 63Z" fill="#382C3D"></path><mask id="mask0_70_167" style="mask-type:alpha" maskUnits="userSpaceOnUse" x="180" y="19" width="114" height="210"><path d="M180.988 106.5V229C215.322 210.667 285.288 167.5 290.488 141.5C295.688 115.5 292.655 49 290.488 19C226.488 37.8 180.988 92.5 180.988 106.5Z" fill="#382C3D"></path></mask><g mask="url(#mask0_70_167)"><path d="M180.988 106.5V229C215.322 210.667 285.288 167.5 290.488 141.5C295.688 115.5 292.655 49 290.488 19C226.488 37.8 180.988 92.5 180.988 106.5Z" fill="#382C3D"></path><path d="M223.585 205C217.015 180.19 222.2 121.456 295.5 85" stroke="white" stroke-width="5"></path><path d="M194.541 223C193.51 193.363 211.658 130.271 292.5 115" stroke="white" stroke-width="5"></path></g><path d="M19.365 185.98L19.82 184.965C21.8967 184.988 23.5883 185.303 24.895 185.91C26.225 186.517 27.1933 187.333 27.8 188.36C28.43 189.387 28.745 190.542 28.745 191.825C28.745 193.225 28.4067 194.462 27.73 195.535C27.0767 196.608 26.1083 197.46 24.825 198.09C23.5417 198.697 21.9433 199 20.03 199H2.53L4.595 185.525L2.53 172.75H19.4C21.8267 172.75 23.6933 173.322 25 174.465C26.33 175.585 26.995 177.137 26.995 179.12C26.995 180.17 26.7383 181.197 26.225 182.2C25.735 183.18 24.93 184.02 23.81 184.72C22.7133 185.397 21.2317 185.817 19.365 185.98ZM7.185 197.705L5.4 195.29H19.505C20.9517 195.29 22.0717 194.963 22.865 194.31C23.6817 193.633 24.09 192.677 24.09 191.44C24.09 190.133 23.6117 189.118 22.655 188.395C21.7217 187.672 20.3333 187.31 18.49 187.31H7.115V183.74H18.035C19.2717 183.74 20.2983 183.402 21.115 182.725C21.9317 182.025 22.34 181.033 22.34 179.75C22.34 178.793 22.0017 178.012 21.325 177.405C20.6483 176.775 19.6683 176.46 18.385 176.46H5.4L7.185 174.045L9.04 185.525L7.185 197.705ZM39.7938 184.58H50.4688C52.0088 184.58 53.2221 184.23 54.1088 183.53C55.0188 182.83 55.4738 181.873 55.4738 180.66C55.4738 179.423 55.0188 178.467 54.1088 177.79C53.2221 177.09 52.0088 176.74 50.4688 176.74H39.1288L41.1938 174.15V199H36.5738V172.75H50.8888C52.7321 172.75 54.3421 173.088 55.7188 173.765C57.1188 174.418 58.2038 175.34 58.9738 176.53C59.7671 177.697 60.1638 179.073 60.1638 180.66C60.1638 182.2 59.7671 183.565 58.9738 184.755C58.2038 185.922 57.1188 186.843 55.7188 187.52C54.3421 188.173 52.7321 188.5 50.8888 188.5H39.7938V184.58ZM44.9738 186.715H50.3988L60.8288 199H55.2988L44.9738 186.715ZM71.3277 192.98V189.165H89.6677V192.98H71.3277ZM83.5077 172.75L96.1077 199H91.1727L79.7277 174.5H81.5127L70.0677 199H65.1327L77.7327 172.75H83.5077ZM127.132 196.2L125.242 196.41V172.75H129.722V199H123.842L105.432 175.34L107.287 175.13V199H102.807V172.75H108.827L127.132 196.2ZM150.951 172.75C153.937 172.75 156.551 173.298 158.791 174.395C161.054 175.492 162.816 177.032 164.076 179.015C165.336 180.975 165.966 183.262 165.966 185.875C165.966 188.488 165.336 190.787 164.076 192.77C162.816 194.73 161.054 196.258 158.791 197.355C156.551 198.452 153.937 199 150.951 199H139.086V172.75H150.951ZM143.706 197.39L141.151 194.94H151.266C153.272 194.94 155.022 194.567 156.516 193.82C158.032 193.05 159.199 191.988 160.016 190.635C160.856 189.258 161.276 187.672 161.276 185.875C161.276 184.055 160.856 182.468 160.016 181.115C159.199 179.762 158.032 178.712 156.516 177.965C155.022 177.195 153.272 176.81 151.266 176.81H141.151L143.706 174.36V197.39Z" fill="#382C3D"></path></svg>