<svg xmlns="http://www.w3.org/2000/svg" width="244" height="242" viewBox="0 0 244 242" fill="none"><mask id="mask0_70_188" style="mask-type:alpha" maskUnits="userSpaceOnUse" x="3" y="0" width="231" height="200"><path d="M174 3H62.5L6.5 101L62.5 197H176.5L230 101L174 3Z" stroke="#F0B031" stroke-width="6"></path><path d="M61 0H176L233.5 101L178.5 200L61 0Z" fill="#F1AE30"></path></mask><g mask="url(#mask0_70_188)"><path d="M174 3H62.5L6.5 101L62.5 197H176.5L230 101L174 3Z" stroke="#F0B031" stroke-width="6"></path><path d="M61 0H176L233.5 101L178.5 200L61 0Z" fill="#F1AE30"></path><path d="M75.5 32.2277L90.5 9" stroke="white"></path><path d="M85.5 43.3366L107.5 9" stroke="white" stroke-width="2"></path><path d="M93.5 56.4653L122.5 9" stroke="white" stroke-width="3"></path><path d="M100.5 70.604L136.5 9" stroke="white" stroke-width="4"></path><path d="M107.5 83L151.5 9" stroke="white" stroke-width="5"></path><path d="M114.5 96.8614L166.5 9" stroke="white" stroke-width="6"></path><path d="M122.5 111L176.5 20.1089" stroke="white" stroke-width="7"></path></g><path d="M14.514 232.328L14.852 231.574C16.3947 231.591 17.6513 231.825 18.622 232.276C19.61 232.727 20.3293 233.333 20.78 234.096C21.248 234.859 21.482 235.717 21.482 236.67C21.482 237.71 21.2307 238.629 20.728 239.426C20.2427 240.223 19.5233 240.856 18.57 241.324C17.6167 241.775 16.4293 242 15.008 242H2.008L3.542 231.99L2.008 222.5H14.54C16.3427 222.5 17.7293 222.925 18.7 223.774C19.688 224.606 20.182 225.759 20.182 227.232C20.182 228.012 19.9913 228.775 19.61 229.52C19.246 230.248 18.648 230.872 17.816 231.392C17.0013 231.895 15.9007 232.207 14.514 232.328ZM5.466 241.038L4.14 239.244H14.618C15.6927 239.244 16.5247 239.001 17.114 238.516C17.7207 238.013 18.024 237.303 18.024 236.384C18.024 235.413 17.6687 234.659 16.958 234.122C16.2647 233.585 15.2333 233.316 13.864 233.316H5.414V230.664H13.526C14.4447 230.664 15.2073 230.413 15.814 229.91C16.4207 229.39 16.724 228.653 16.724 227.7C16.724 226.989 16.4727 226.409 15.97 225.958C15.4673 225.49 14.7393 225.256 13.786 225.256H4.14L5.466 223.462L6.844 231.99L5.466 241.038ZM29.6897 231.288H37.6197C38.7637 231.288 39.665 231.028 40.3237 230.508C40.9997 229.988 41.3377 229.277 41.3377 228.376C41.3377 227.457 40.9997 226.747 40.3237 226.244C39.665 225.724 38.7637 225.464 37.6197 225.464H29.1957L30.7297 223.54V242H27.2977V222.5H37.9317C39.301 222.5 40.497 222.751 41.5197 223.254C42.5597 223.739 43.3657 224.424 43.9377 225.308C44.527 226.175 44.8217 227.197 44.8217 228.376C44.8217 229.52 44.527 230.534 43.9377 231.418C43.3657 232.285 42.5597 232.969 41.5197 233.472C40.497 233.957 39.301 234.2 37.9317 234.2H29.6897V231.288ZM33.5377 232.874H37.5677L45.3157 242H41.2077L33.5377 232.874ZM53.1149 237.528V234.694H66.7389V237.528H53.1149ZM62.1629 222.5L71.5229 242H67.8569L59.3549 223.8H60.6809L52.1789 242H48.5129L57.8729 222.5H62.1629ZM94.5696 239.92L93.1656 240.076V222.5H96.4936V242H92.1256L78.4496 224.424L79.8276 224.268V242H76.4996V222.5H80.9716L94.5696 239.92ZM112.263 222.5C114.482 222.5 116.423 222.907 118.087 223.722C119.769 224.537 121.077 225.681 122.013 227.154C122.949 228.61 123.417 230.309 123.417 232.25C123.417 234.191 122.949 235.899 122.013 237.372C121.077 238.828 119.769 239.963 118.087 240.778C116.423 241.593 114.482 242 112.263 242H103.449V222.5H112.263ZM106.881 240.804L104.983 238.984H112.497C113.988 238.984 115.288 238.707 116.397 238.152C117.524 237.58 118.391 236.791 118.997 235.786C119.621 234.763 119.933 233.585 119.933 232.25C119.933 230.898 119.621 229.719 118.997 228.714C118.391 227.709 117.524 226.929 116.397 226.374C115.288 225.802 113.988 225.516 112.497 225.516H104.983L106.881 223.696V240.804ZM156.909 239.92L155.505 240.076V222.5H158.833V242H154.465L140.789 224.424L142.167 224.268V242H138.839V222.5H143.311L156.909 239.92ZM168.388 237.528V234.694H182.012V237.528H168.388ZM177.436 222.5L186.796 242H183.13L174.628 223.8H175.954L167.452 242H163.786L173.146 222.5H177.436ZM218.007 222.5V242H214.731V223.54L215.797 223.592L206.723 242H203.057L193.983 223.618L195.049 223.566V242H191.773V222.5H197.025L205.761 240.518H204.045L212.755 222.5H218.007ZM240.543 230.82V233.68H226.919V230.82H240.543ZM229.181 232.25L227.803 240.96L226.165 239.036H241.297V242H224.293L225.853 232.25L224.293 222.5H241.167V225.464H226.165L227.803 223.54L229.181 232.25Z" fill="#F1AE30"></path></svg>