<svg width="400" height="400" viewBox="0 0 400 400" fill="none" xmlns="http://www.w3.org/2000/svg">
<rect width="400" height="400" fill="white"/>
<g clip-path="url(#clip0_114_28)">
<path d="M39.5047 219C36.4408 219 33.7473 218.324 31.4241 216.973C29.1346 215.621 27.3502 213.661 26.0707 211.093C24.7913 208.525 24.1516 205.433 24.1516 201.818C24.1516 198.236 24.825 195.161 26.1718 192.593C27.5185 189.991 29.4208 187.998 31.8787 186.612C34.3702 185.227 37.2489 184.534 40.5148 184.534C44.1173 184.534 47.0297 185.21 49.2519 186.562C51.4741 187.879 53.2417 189.941 54.5548 192.745L48.0903 195.533C47.5516 193.742 46.6257 192.424 45.3126 191.579C44.0332 190.701 42.4507 190.262 40.5653 190.262C38.6798 190.262 37.0468 190.718 35.6664 191.63C34.286 192.509 33.2254 193.81 32.4847 195.533C31.744 197.222 31.3736 199.3 31.3736 201.767C31.3736 204.301 31.7272 206.447 32.4342 208.204C33.1413 209.927 34.185 211.228 35.5654 212.107C36.9795 212.952 38.7135 213.374 40.7673 213.374C41.8784 213.374 42.9053 213.239 43.848 212.968C44.8244 212.698 45.6661 212.293 46.3732 211.752C47.0802 211.211 47.6358 210.519 48.0398 209.674C48.4438 208.829 48.6459 207.849 48.6459 206.734V205.974H39.9087V200.855H54.6558V218.493H49.7569L49.2519 211.195L50.464 212.056C49.7232 214.286 48.4102 216.01 46.5247 217.226C44.6729 218.409 42.3329 219 39.5047 219ZM73.3247 219C70.6649 219 68.3417 218.476 66.3552 217.429C64.4025 216.381 62.8874 214.878 61.8099 212.918C60.7325 210.958 60.1938 208.593 60.1938 205.822C60.1938 203.051 60.7325 200.686 61.8099 198.726C62.8874 196.766 64.3856 195.263 66.3047 194.215C68.2576 193.168 70.4797 192.644 72.9712 192.644C75.5299 192.644 77.7016 193.168 79.4864 194.215C81.2707 195.229 82.6343 196.631 83.5772 198.422C84.5196 200.179 84.9913 202.189 84.9913 204.453C84.9913 205.129 84.9741 205.771 84.9408 206.379C84.9069 206.988 84.8564 207.528 84.7893 208.001H64.6381V203.186H81.759L78.4258 204.403C78.4258 202.274 77.9374 200.635 76.9612 199.486C76.0183 198.337 74.6714 197.763 72.9207 197.763C71.6413 197.763 70.5302 198.067 69.5875 198.675C68.6784 199.284 67.9882 200.196 67.5168 201.412C67.0455 202.595 66.8098 204.099 66.8098 205.923C66.8098 207.714 67.0623 209.201 67.5673 210.384C68.1061 211.532 68.8468 212.394 69.7895 212.968C70.7659 213.543 71.9275 213.83 73.2742 213.83C74.7557 213.83 75.9511 213.543 76.8602 212.968C77.7693 212.394 78.4763 211.6 78.9813 210.586L84.4862 212.715C83.9474 214.033 83.1226 215.165 82.0116 216.111C80.9338 217.057 79.6379 217.784 78.1228 218.29C76.641 218.763 75.0421 219 73.3247 219ZM99.3499 185.396V210.232C99.3499 211.448 99.653 212.343 100.259 212.918C100.899 213.458 101.757 213.729 102.835 213.729C103.677 213.729 104.417 213.611 105.057 213.374C105.697 213.104 106.269 212.749 106.774 212.31L107.885 216.922C107.077 217.564 106.067 218.071 104.855 218.442C103.643 218.814 102.363 219 101.017 219C99.3333 219 97.8348 218.747 96.5217 218.24C95.2425 217.733 94.2324 216.922 93.4915 215.807C92.7845 214.692 92.431 213.205 92.431 211.347V187.322L99.3499 185.396ZM107.431 193.151V198.321H87.7846V193.151H107.431Z" fill="#FF6B1F"/>
<path d="M124.99 184.534C128.02 184.534 130.68 185.058 132.969 186.105C135.259 187.153 137.212 188.707 138.828 190.768L134.939 195.279C133.558 193.522 132.043 192.238 130.394 191.427C128.778 190.583 126.892 190.16 124.737 190.16C123.323 190.16 122.145 190.346 121.202 190.718C120.293 191.089 119.619 191.579 119.182 192.188C118.778 192.796 118.576 193.472 118.576 194.215C118.576 195.127 118.929 195.905 119.637 196.547C120.344 197.155 121.556 197.662 123.273 198.067L129.485 199.486C132.784 200.23 135.141 201.345 136.555 202.832C138.003 204.284 138.727 206.177 138.727 208.508C138.727 210.705 138.154 212.597 137.01 214.185C135.865 215.739 134.265 216.939 132.212 217.784C130.158 218.595 127.801 219 125.141 219C122.818 219 120.68 218.73 118.727 218.189C116.808 217.615 115.091 216.837 113.576 215.858C112.061 214.878 110.798 213.746 109.788 212.462L113.728 207.748C114.502 208.829 115.461 209.792 116.606 210.637C117.751 211.482 119.047 212.158 120.495 212.664C121.976 213.137 123.525 213.374 125.141 213.374C126.522 213.374 127.683 213.222 128.626 212.918C129.602 212.58 130.326 212.124 130.798 211.549C131.303 210.941 131.555 210.215 131.555 209.37C131.555 208.491 131.252 207.748 130.646 207.14C130.074 206.498 128.996 206.008 127.414 205.67L120.647 204.149C118.694 203.676 117.01 203.068 115.596 202.325C114.215 201.548 113.155 200.568 112.415 199.385C111.707 198.168 111.354 196.732 111.354 195.077C111.354 193.083 111.892 191.292 112.97 189.704C114.047 188.116 115.596 186.866 117.616 185.953C119.67 185.007 122.128 184.534 124.99 184.534ZM153.552 185.396V210.232C153.552 211.448 153.855 212.343 154.461 212.918C155.101 213.458 155.96 213.729 157.037 213.729C157.879 213.729 158.619 213.611 159.259 213.374C159.899 213.104 160.471 212.749 160.976 212.31L162.087 216.922C161.279 217.564 160.269 218.071 159.057 218.442C157.845 218.814 156.566 219 155.219 219C153.536 219 152.037 218.747 150.724 218.24C149.445 217.733 148.435 216.922 147.694 215.807C146.987 214.692 146.633 213.205 146.633 211.347V187.322L153.552 185.396ZM161.633 193.151V198.321H141.987V193.151H161.633ZM166.314 218.493V193.151H172.324L172.778 198.118C173.452 196.361 174.428 195.009 175.708 194.063C177.021 193.117 178.654 192.644 180.606 192.644C181.179 192.644 181.701 192.695 182.172 192.796C182.643 192.897 183.031 193.032 183.334 193.201L182.526 199.03C182.189 198.895 181.768 198.794 181.263 198.726C180.792 198.658 180.169 198.625 179.394 198.625C178.384 198.625 177.408 198.878 176.465 199.385C175.522 199.858 174.748 200.601 174.142 201.615C173.536 202.595 173.233 203.845 173.233 205.366V218.493H166.314ZM196.408 219C194.724 219 193.209 218.696 191.862 218.088C190.516 217.479 189.438 216.516 188.63 215.199C187.856 213.847 187.468 212.107 187.468 209.978V193.151H194.387V208.305C194.387 210.265 194.791 211.634 195.599 212.411C196.408 213.154 197.569 213.526 199.084 213.526C199.791 213.526 200.482 213.408 201.155 213.171C201.829 212.901 202.417 212.495 202.923 211.955C203.461 211.414 203.882 210.721 204.185 209.877C204.488 208.998 204.64 207.968 204.64 206.785V193.151H211.559V218.493H205.397L205.145 214.084C204.303 215.773 203.142 217.023 201.66 217.834C200.212 218.611 198.462 219 196.408 219ZM230.304 192.644C232.56 192.644 234.462 192.982 236.011 193.658C237.593 194.3 238.856 195.195 239.799 196.344C240.775 197.459 241.465 198.709 241.869 200.095L235.405 202.426C235.068 200.905 234.496 199.757 233.688 198.979C232.88 198.202 231.785 197.814 230.405 197.814C229.125 197.814 228.031 198.118 227.122 198.726C226.213 199.3 225.523 200.196 225.052 201.412C224.58 202.595 224.345 204.082 224.345 205.873C224.345 207.663 224.58 209.15 225.052 210.333C225.557 211.516 226.264 212.394 227.173 212.968C228.115 213.543 229.21 213.83 230.456 213.83C231.466 213.83 232.324 213.661 233.031 213.323C233.738 212.952 234.311 212.428 234.748 211.752C235.22 211.076 235.539 210.265 235.708 209.319L241.97 211.347C241.6 212.867 240.91 214.202 239.9 215.351C238.89 216.5 237.593 217.395 236.011 218.037C234.428 218.679 232.593 219 230.506 219C227.913 219 225.624 218.476 223.638 217.429C221.651 216.381 220.119 214.878 219.042 212.918C217.964 210.958 217.426 208.593 217.426 205.822C217.426 203.051 217.964 200.686 219.042 198.726C220.119 196.766 221.634 195.263 223.587 194.215C225.54 193.168 227.779 192.644 230.304 192.644ZM256.286 185.396V210.232C256.286 211.448 256.589 212.343 257.195 212.918C257.835 213.458 258.693 213.729 259.77 213.729C260.612 213.729 261.353 213.611 261.993 213.374C262.632 213.104 263.205 212.749 263.71 212.31L264.821 216.922C264.013 217.564 263.003 218.071 261.791 218.442C260.578 218.814 259.299 219 257.952 219C256.269 219 254.771 218.747 253.457 218.24C252.178 217.733 251.168 216.922 250.427 215.807C249.72 214.692 249.367 213.205 249.367 211.347V187.322L256.286 185.396ZM264.366 193.151V198.321H244.72V193.151H264.366ZM277.835 219C276.151 219 274.636 218.696 273.29 218.088C271.943 217.479 270.866 216.516 270.057 215.199C269.283 213.847 268.896 212.107 268.896 209.978V193.151H275.815V208.305C275.815 210.265 276.219 211.634 277.027 212.411C277.835 213.154 278.997 213.526 280.512 213.526C281.219 213.526 281.909 213.408 282.582 213.171C283.256 212.901 283.845 212.495 284.35 211.955C284.888 211.414 285.31 210.721 285.613 209.877C285.916 208.998 286.067 207.968 286.067 206.785V193.151H292.986V218.493H286.825L286.572 214.084C285.73 215.773 284.569 217.023 283.087 217.834C281.639 218.611 279.888 219 277.835 219ZM300.267 218.493V193.151H306.277L306.731 198.118C307.405 196.361 308.381 195.009 309.66 194.063C310.973 193.117 312.607 192.644 314.559 192.644C315.132 192.644 315.654 192.695 316.125 192.796C316.597 192.897 316.983 193.032 317.286 193.201L316.478 199.03C316.142 198.895 315.721 198.794 315.216 198.726C314.745 198.658 314.122 198.625 313.347 198.625C312.337 198.625 311.361 198.878 310.418 199.385C309.476 199.858 308.701 200.601 308.095 201.615C307.489 202.595 307.186 203.845 307.186 205.366V218.493H300.267ZM332.797 219C330.137 219 327.813 218.476 325.827 217.429C323.874 216.381 322.359 214.878 321.282 212.918C320.204 210.958 319.666 208.593 319.666 205.822C319.666 203.051 320.204 200.686 321.282 198.726C322.359 196.766 323.857 195.263 325.777 194.215C327.73 193.168 329.952 192.644 332.443 192.644C335.002 192.644 337.174 193.168 338.958 194.215C340.742 195.229 342.106 196.631 343.049 198.422C343.992 200.179 344.463 202.189 344.463 204.453C344.463 205.129 344.446 205.771 344.412 206.379C344.379 206.988 344.328 207.528 344.261 208.001H324.11V203.186H341.231L337.897 204.403C337.897 202.274 337.409 200.635 336.433 199.486C335.49 198.337 334.143 197.763 332.393 197.763C331.113 197.763 330.002 198.067 329.059 198.675C328.15 199.284 327.46 200.196 326.989 201.412C326.517 202.595 326.282 204.099 326.282 205.923C326.282 207.714 326.534 209.201 327.039 210.384C327.578 211.532 328.318 212.394 329.261 212.968C330.238 213.543 331.399 213.83 332.746 213.83C334.227 213.83 335.423 213.543 336.332 212.968C337.241 212.394 337.948 211.6 338.453 210.586L343.958 212.715C343.419 214.033 342.594 215.165 341.483 216.111C340.406 217.057 339.109 217.784 337.594 218.29C336.113 218.763 334.514 219 332.797 219ZM359.872 219C357.784 219 355.916 218.476 354.266 217.429C352.65 216.381 351.37 214.878 350.427 212.918C349.518 210.958 349.064 208.61 349.064 205.873C349.064 203.068 349.552 200.686 350.528 198.726C351.505 196.732 352.818 195.229 354.468 194.215C356.151 193.168 358.037 192.644 360.124 192.644C362.346 192.644 364.182 193.286 365.629 194.57C367.077 195.854 368.02 197.51 368.457 199.537L367.801 200.348V182.051H374.72V218.493H368.508L368.053 210.789L368.912 211.195C368.676 212.783 368.137 214.168 367.296 215.351C366.454 216.5 365.394 217.395 364.114 218.037C362.835 218.679 361.42 219 359.872 219ZM361.892 213.678C363.104 213.678 364.148 213.374 365.023 212.766C365.899 212.124 366.572 211.195 367.043 209.978C367.548 208.762 367.801 207.309 367.801 205.619C367.801 203.997 367.565 202.629 367.094 201.514C366.622 200.365 365.949 199.486 365.073 198.878C364.198 198.27 363.171 197.966 361.993 197.966C360.107 197.966 358.626 198.642 357.548 199.993C356.505 201.311 355.983 203.254 355.983 205.822C355.983 208.39 356.505 210.35 357.548 211.701C358.592 213.019 360.04 213.678 361.892 213.678Z" fill="black"/>
</g>
<defs>
<clipPath id="clip0_114_28">
<rect width="351" height="37" fill="white" transform="translate(24 182)"/>
</clipPath>
</defs>
</svg>
