<svg xmlns="http://www.w3.org/2000/svg" width="282" height="178" viewBox="0 0 282 178" fill="none"><path d="M114.096 73.549C105.874 63.4686 94.7757 56.1329 82.2796 52.5191C69.7836 48.9054 56.483 49.1852 44.15 53.3214C31.817 57.4576 21.0372 65.2537 13.2467 75.671C5.45633 86.0883 1.02524 98.6322 0.543841 111.631C0.0624426 124.631 3.55359 137.468 10.5522 148.433C17.5507 159.398 27.7244 167.97 39.7177 173.007C51.711 178.044 64.9544 179.307 77.6835 176.627C90.4127 173.948 102.023 167.453 110.968 158.008L93.8005 141.75C88.1604 147.705 80.8394 151.8 72.813 153.49C64.7865 155.18 56.4358 154.383 48.8734 151.207C41.311 148.031 34.8959 142.626 30.4829 135.712C26.0699 128.798 23.8686 120.703 24.1721 112.506C24.4757 104.31 27.2697 96.4001 32.182 89.8314C37.0943 83.2627 43.8916 78.3469 51.6682 75.7388C59.4448 73.1307 67.8316 72.9542 75.711 75.2329C83.5905 77.5115 90.5885 82.1371 95.7728 88.4934L114.096 73.549Z" fill="#2657A0"></path><path d="M51.7469 119.345C60.8901 126.892 71.9498 131.751 83.6928 133.38C95.4358 135.009 107.401 133.344 118.253 128.572C129.105 123.799 138.418 116.105 145.154 106.349C151.89 96.593 155.783 85.1577 156.401 73.3183C157.018 61.4789 154.334 49.7008 148.649 39.2973C142.964 28.8938 134.501 20.2739 124.204 14.3987C113.906 8.52348 102.179 5.62397 90.3307 6.02345C78.482 6.42294 66.9771 10.1057 57.0988 16.6611L70.1729 36.3622C76.4017 32.2286 83.6562 29.9064 91.1274 29.6545C98.5987 29.4026 105.993 31.2309 112.486 34.9355C118.979 38.6402 124.316 44.0755 127.9 50.6355C131.485 57.1955 133.177 64.6222 132.788 72.0876C132.399 79.553 129.944 86.7636 125.697 92.9154C121.449 99.0671 115.577 103.918 108.734 106.928C101.891 109.937 94.3465 110.987 86.9419 109.96C79.5373 108.933 72.5635 105.869 66.7982 101.11L51.7469 119.345Z" fill="#2657A0"></path><circle cx="64.5" cy="114" r="27" fill="#2657A0"></circle><path d="M145.748 148.096L146.164 147.168C148.063 147.189 149.609 147.477 150.804 148.032C152.02 148.587 152.905 149.333 153.46 150.272C154.036 151.211 154.324 152.267 154.324 153.44C154.324 154.72 154.015 155.851 153.396 156.832C152.799 157.813 151.913 158.592 150.74 159.168C149.567 159.723 148.105 160 146.356 160H130.356L132.244 147.68L130.356 136H145.78C147.999 136 149.705 136.523 150.9 137.568C152.116 138.592 152.724 140.011 152.724 141.824C152.724 142.784 152.489 143.723 152.02 144.64C151.572 145.536 150.836 146.304 149.812 146.944C148.809 147.563 147.455 147.947 145.748 148.096ZM134.612 158.816L132.98 156.608H145.876C147.199 156.608 148.223 156.309 148.948 155.712C149.695 155.093 150.068 154.219 150.068 153.088C150.068 151.893 149.631 150.965 148.756 150.304C147.903 149.643 146.633 149.312 144.948 149.312H134.548V146.048H144.532C145.663 146.048 146.601 145.739 147.348 145.12C148.095 144.48 148.468 143.573 148.468 142.4C148.468 141.525 148.159 140.811 147.54 140.256C146.921 139.68 146.025 139.392 144.852 139.392H132.98L134.612 137.184L136.308 147.68L134.612 158.816ZM164.426 146.816H174.186C175.594 146.816 176.703 146.496 177.514 145.856C178.346 145.216 178.762 144.341 178.762 143.232C178.762 142.101 178.346 141.227 177.514 140.608C176.703 139.968 175.594 139.648 174.186 139.648H163.818L165.706 137.28V160H161.482V136H174.57C176.255 136 177.727 136.309 178.986 136.928C180.266 137.525 181.258 138.368 181.962 139.456C182.687 140.523 183.05 141.781 183.05 143.232C183.05 144.64 182.687 145.888 181.962 146.976C181.258 148.043 180.266 148.885 178.986 149.504C177.727 150.101 176.255 150.4 174.57 150.4H164.426V146.816ZM169.162 148.768H174.122L183.658 160H178.602L169.162 148.768ZM193.257 154.496V151.008H210.025V154.496H193.257ZM204.393 136L215.913 160H211.401L200.937 137.6H202.569L192.105 160H187.593L199.113 136H204.393ZM244.278 157.44L242.55 157.632V136H246.646V160H241.27L224.438 138.368L226.134 138.176V160H222.038V136H227.542L244.278 157.44ZM266.055 136C268.785 136 271.175 136.501 273.223 137.504C275.292 138.507 276.903 139.915 278.055 141.728C279.207 143.52 279.783 145.611 279.783 148C279.783 150.389 279.207 152.491 278.055 154.304C276.903 156.096 275.292 157.493 273.223 158.496C271.175 159.499 268.785 160 266.055 160H255.207V136H266.055ZM259.431 158.528L257.095 156.288H266.343C268.177 156.288 269.777 155.947 271.143 155.264C272.529 154.56 273.596 153.589 274.343 152.352C275.111 151.093 275.495 149.643 275.495 148C275.495 146.336 275.111 144.885 274.343 143.648C273.596 142.411 272.529 141.451 271.143 140.768C269.777 140.064 268.177 139.712 266.343 139.712H257.095L259.431 137.472V158.528Z" fill="#2657A0"></path></svg>