<svg xmlns="http://www.w3.org/2000/svg" width="279" height="204" viewBox="0 0 279 204" fill="none"><path d="M0 139.5V0.5H139.5V33.5H116.5V96.5H139.5V139.5H0Z" fill="#382C3D"></path><path d="M153.5 95V34H192.5V95H153.5Z" fill="#382C3D"></path><rect x="0.5" y="154" width="50" height="50" fill="#382C3D"></rect><path d="M38.5 192V166.5L13.5 192H38.5Z" fill="white"></path><path d="M100.138 188.376L100.684 187.158C103.176 187.186 105.206 187.564 106.774 188.292C108.37 189.02 109.532 190 110.26 191.232C111.016 192.464 111.394 193.85 111.394 195.39C111.394 197.07 110.988 198.554 110.176 199.842C109.392 201.13 108.23 202.152 106.69 202.908C105.15 203.636 103.232 204 100.936 204H79.936L82.414 187.83L79.936 172.5H100.18C103.092 172.5 105.332 173.186 106.9 174.558C108.496 175.902 109.294 177.764 109.294 180.144C109.294 181.404 108.986 182.636 108.37 183.84C107.782 185.016 106.816 186.024 105.472 186.864C104.156 187.676 102.378 188.18 100.138 188.376ZM85.522 202.446L83.38 199.548H100.306C102.042 199.548 103.386 199.156 104.338 198.372C105.318 197.56 105.808 196.412 105.808 194.928C105.808 193.36 105.234 192.142 104.086 191.274C102.966 190.406 101.3 189.972 99.088 189.972H85.438V185.688H98.542C100.026 185.688 101.258 185.282 102.238 184.47C103.218 183.63 103.708 182.44 103.708 180.9C103.708 179.752 103.302 178.814 102.49 178.086C101.678 177.33 100.502 176.952 98.962 176.952H83.38L85.522 174.054L87.748 187.83L85.522 202.446ZM124.653 186.696H137.463C139.311 186.696 140.767 186.276 141.831 185.436C142.923 184.596 143.469 183.448 143.469 181.992C143.469 180.508 142.923 179.36 141.831 178.548C140.767 177.708 139.311 177.288 137.463 177.288H123.855L126.333 174.18V204H120.789V172.5H137.967C140.179 172.5 142.111 172.906 143.763 173.718C145.443 174.502 146.745 175.608 147.669 177.036C148.621 178.436 149.097 180.088 149.097 181.992C149.097 183.84 148.621 185.478 147.669 186.906C146.745 188.306 145.443 189.412 143.763 190.224C142.111 191.008 140.179 191.4 137.967 191.4H124.653V186.696ZM130.869 189.258H137.379L149.895 204H143.259L130.869 189.258ZM162.493 196.776V192.198H184.501V196.776H162.493ZM177.109 172.5L192.229 204H186.307L172.573 174.6H174.715L160.981 204H155.059L170.179 172.5H177.109ZM229.459 200.64L227.191 200.892V172.5H232.567V204H225.511L203.419 175.608L205.645 175.356V204H200.269V172.5H207.493L229.459 200.64ZM258.041 172.5C261.625 172.5 264.761 173.158 267.449 174.474C270.165 175.79 272.279 177.638 273.791 180.018C275.303 182.37 276.059 185.114 276.059 188.25C276.059 191.386 275.303 194.144 273.791 196.524C272.279 198.876 270.165 200.71 267.449 202.026C264.761 203.342 261.625 204 258.041 204H243.803V172.5H258.041ZM249.347 202.068L246.281 199.128H258.419C260.827 199.128 262.927 198.68 264.719 197.784C266.539 196.86 267.939 195.586 268.919 193.962C269.927 192.31 270.431 190.406 270.431 188.25C270.431 186.066 269.927 184.162 268.919 182.538C267.939 180.914 266.539 179.654 264.719 178.758C262.927 177.834 260.827 177.372 258.419 177.372H246.281L249.347 174.432V202.068Z" fill="#020626"></path></svg>