<svg xmlns="http://www.w3.org/2000/svg" width="211" height="253" viewBox="0 0 211 253" fill="none"><path d="M35 0L71 35H175V138.5L210.5 174.5V0H35Z" fill="#D35954"></path><path d="M3.5 38H72L122.5 89L173.5 140.5V208H3.5V38Z" fill="#D35954"></path><rect x="29.5" y="67" width="7" height="115" fill="#D9D9D9"></rect><rect x="140.5" y="176" width="6" height="104" transform="rotate(90 140.5 176)" fill="#D9D9D9"></rect><path d="M22.375 244.575C22.2083 246.108 21.6667 247.467 20.75 248.65C19.85 249.817 18.6667 250.725 17.2 251.375C15.7333 252.025 14.0583 252.35 12.175 252.35C10.075 252.35 8.23333 251.942 6.65 251.125C5.06667 250.308 3.83333 249.175 2.95 247.725C2.06667 246.258 1.625 244.558 1.625 242.625C1.625 240.692 2.06667 239 2.95 237.55C3.83333 236.083 5.06667 234.942 6.65 234.125C8.23333 233.308 10.075 232.9 12.175 232.9C14.0583 232.9 15.7333 233.225 17.2 233.875C18.6667 234.525 19.85 235.433 20.75 236.6C21.6667 237.767 22.2083 239.125 22.375 240.675H19.05C18.8667 239.675 18.4667 238.817 17.85 238.1C17.25 237.383 16.4667 236.833 15.5 236.45C14.5333 236.05 13.4167 235.85 12.15 235.85C10.6833 235.85 9.40833 236.125 8.325 236.675C7.25833 237.225 6.43333 238.008 5.85 239.025C5.26667 240.042 4.975 241.242 4.975 242.625C4.975 244.008 5.26667 245.208 5.85 246.225C6.43333 247.242 7.25833 248.025 8.325 248.575C9.40833 249.125 10.6833 249.4 12.15 249.4C13.4167 249.4 14.5333 249.208 15.5 248.825C16.4667 248.442 17.25 247.892 17.85 247.175C18.4667 246.442 18.8667 245.575 19.05 244.575H22.375ZM37.6527 252.35C35.5194 252.35 33.6444 251.942 32.0277 251.125C30.4111 250.308 29.1527 249.175 28.2527 247.725C27.3527 246.258 26.9027 244.558 26.9027 242.625C26.9027 240.692 27.3527 239 28.2527 237.55C29.1527 236.083 30.4111 234.942 32.0277 234.125C33.6444 233.308 35.5194 232.9 37.6527 232.9C39.7861 232.9 41.6611 233.308 43.2777 234.125C44.8944 234.942 46.1527 236.083 47.0527 237.55C47.9527 239 48.4027 240.692 48.4027 242.625C48.4027 244.558 47.9527 246.258 47.0527 247.725C46.1527 249.175 44.8944 250.308 43.2777 251.125C41.6611 251.942 39.7861 252.35 37.6527 252.35ZM37.6527 249.4C39.1694 249.4 40.4777 249.125 41.5777 248.575C42.6777 248.025 43.5277 247.242 44.1277 246.225C44.7444 245.208 45.0527 244.008 45.0527 242.625C45.0527 241.242 44.7444 240.042 44.1277 239.025C43.5277 238.008 42.6777 237.225 41.5777 236.675C40.4777 236.125 39.1694 235.85 37.6527 235.85C36.1527 235.85 34.8444 236.125 33.7277 236.675C32.6277 237.225 31.7694 238.008 31.1527 239.025C30.5527 240.042 30.2527 241.242 30.2527 242.625C30.2527 244.008 30.5527 245.208 31.1527 246.225C31.7694 247.242 32.6277 248.025 33.7277 248.575C34.8444 249.125 36.1527 249.4 37.6527 249.4ZM79.3338 233.25V252H76.1838V234.25L77.2088 234.3L68.4838 252H64.9588L56.2338 234.325L57.2588 234.275V252H54.1088V233.25H59.1588L67.5588 250.575H65.9088L74.2838 233.25H79.3338ZM95.9527 233.25C97.3527 233.25 98.5611 233.5 99.5777 234C100.611 234.5 101.403 235.2 101.953 236.1C102.519 236.983 102.803 238.008 102.803 239.175C102.803 240.342 102.519 241.375 101.953 242.275C101.403 243.158 100.611 243.85 99.5777 244.35C98.5611 244.85 97.3527 245.1 95.9527 245.1H87.5277V242.25H95.8277C96.9611 242.25 97.8444 241.975 98.4777 241.425C99.1277 240.875 99.4527 240.125 99.4527 239.175C99.4527 238.225 99.1277 237.475 98.4777 236.925C97.8444 236.375 96.9611 236.1 95.8277 236.1H87.8527L89.3277 234.45V252H86.0277V233.25H95.9527ZM108.166 247.7V244.975H121.266V247.7H108.166ZM116.866 233.25L125.866 252H122.341L114.166 234.5H115.441L107.266 252H103.741L112.741 233.25H116.866ZM148.027 250L146.677 250.15V233.25H149.877V252H145.677L132.527 235.1L133.852 234.95V252H130.652V233.25H134.952L148.027 250ZM163.715 252V243.05H167.015V252H163.715ZM154.865 233.25H158.59L166.24 242.85H164.465L172.115 233.25H175.84L166.415 245.075L164.315 245.1L154.865 233.25Z" fill="black"></path></svg>