<svg xmlns="http://www.w3.org/2000/svg" width="319" height="226" viewBox="0 0 319 226" fill="none"><path d="M100.5 52.4997V153C193.5 141.5 218 96.4998 223.5 75.4998C229 54.4998 217.5 1.9997 163.5 0.9997C120.3 0.199699 101.5 35.5 100.5 52.4997Z" fill="#2657A0"></path><path d="M86.5 190.079L86.5 120C22.1259 128.019 5.16714 159.398 1.36007 174.041C-2.44701 188.685 5.51323 225.293 42.8917 225.991C72.7945 226.549 85.8078 201.933 86.5 190.079Z" fill="#2657A0"></path><circle cx="66" cy="91.5" r="22.5" fill="#2657A0"></circle><circle cx="43.5" cy="183" r="12" fill="white"></circle><path d="M127.625 189.793C127.418 191.694 126.747 193.379 125.61 194.846C124.494 196.293 123.027 197.419 121.208 198.225C119.389 199.031 117.312 199.434 114.977 199.434C112.373 199.434 110.089 198.928 108.126 197.915C106.163 196.902 104.633 195.497 103.538 193.699C102.443 191.88 101.895 189.772 101.895 187.375C101.895 184.978 102.443 182.88 103.538 181.082C104.633 179.263 106.163 177.848 108.126 176.835C110.089 175.822 112.373 175.316 114.977 175.316C117.312 175.316 119.389 175.719 121.208 176.525C123.027 177.331 124.494 178.457 125.61 179.904C126.747 181.351 127.418 183.035 127.625 184.957H123.502C123.275 183.717 122.779 182.653 122.014 181.764C121.27 180.875 120.299 180.193 119.1 179.718C117.901 179.222 116.517 178.974 114.946 178.974C113.127 178.974 111.546 179.315 110.203 179.997C108.88 180.679 107.857 181.65 107.134 182.911C106.411 184.172 106.049 185.66 106.049 187.375C106.049 189.09 106.411 190.578 107.134 191.839C107.857 193.1 108.88 194.071 110.203 194.753C111.546 195.435 113.127 195.776 114.946 195.776C116.517 195.776 117.901 195.538 119.1 195.063C120.299 194.588 121.27 193.906 122.014 193.017C122.779 192.108 123.275 191.033 123.502 189.793H127.625ZM146.569 199.434C143.924 199.434 141.599 198.928 139.594 197.915C137.59 196.902 136.029 195.497 134.913 193.699C133.797 191.88 133.239 189.772 133.239 187.375C133.239 184.978 133.797 182.88 134.913 181.082C136.029 179.263 137.59 177.848 139.594 176.835C141.599 175.822 143.924 175.316 146.569 175.316C149.215 175.316 151.54 175.822 153.544 176.835C155.549 177.848 157.109 179.263 158.225 181.082C159.341 182.88 159.899 184.978 159.899 187.375C159.899 189.772 159.341 191.88 158.225 193.699C157.109 195.497 155.549 196.902 153.544 197.915C151.54 198.928 149.215 199.434 146.569 199.434ZM146.569 195.776C148.45 195.776 150.072 195.435 151.436 194.753C152.8 194.071 153.854 193.1 154.598 191.839C155.363 190.578 155.745 189.09 155.745 187.375C155.745 185.66 155.363 184.172 154.598 182.911C153.854 181.65 152.8 180.679 151.436 179.997C150.072 179.315 148.45 178.974 146.569 178.974C144.709 178.974 143.087 179.315 141.702 179.997C140.338 180.679 139.274 181.65 138.509 182.911C137.765 184.172 137.393 185.66 137.393 187.375C137.393 189.09 137.765 190.578 138.509 191.839C139.274 193.1 140.338 194.071 141.702 194.753C143.087 195.435 144.709 195.776 146.569 195.776ZM198.254 175.75V199H194.348V176.99L195.619 177.052L184.8 199H180.429L169.61 177.083L170.881 177.021V199H166.975V175.75H173.237L183.653 197.233H181.607L191.992 175.75H198.254ZM218.861 175.75C220.597 175.75 222.096 176.06 223.356 176.68C224.638 177.3 225.619 178.168 226.301 179.284C227.004 180.379 227.355 181.65 227.355 183.097C227.355 184.544 227.004 185.825 226.301 186.941C225.619 188.036 224.638 188.894 223.356 189.514C222.096 190.134 220.597 190.444 218.861 190.444H208.414V186.91H218.706C220.112 186.91 221.207 186.569 221.992 185.887C222.798 185.205 223.201 184.275 223.201 183.097C223.201 181.919 222.798 180.989 221.992 180.307C221.207 179.625 220.112 179.284 218.706 179.284H208.817L210.646 177.238V199H206.554V175.75H218.861ZM234.006 193.668V190.289H250.25V193.668H234.006ZM244.794 175.75L255.954 199H251.583L241.446 177.3H243.027L232.89 199H228.519L239.679 175.75H244.794ZM283.433 196.52L281.759 196.706V175.75H285.727V199H280.519L264.213 178.044L265.856 177.858V199H261.888V175.75H267.22L283.433 196.52ZM302.886 199V187.902H306.978V199H302.886ZM291.912 175.75H296.531L306.017 187.654H303.816L313.302 175.75H317.921L306.234 190.413L303.63 190.444L291.912 175.75Z" fill="#2657A0"></path></svg>